<?xml version="1.0" encoding="utf-8"?>
<!-- Generator: Adobe Illustrator 25.0.1, SVG Export Plug-In . SVG Version: 6.00 Build 0)  -->
<svg version="1.1" id="katman_1" xmlns="http://www.w3.org/2000/svg" xmlns:xlink="http://www.w3.org/1999/xlink" x="0px" y="0px"
	 viewBox="0 0 198 45" style="enable-background:new 0 0 198 45;" xml:space="preserve">
<style type="text/css">
	.st0{fill:#FFFFFF;}
</style>
<g>
	<path class="st0" d="M17.5,22.4L2.1,7C1.7,6.6,1.2,6.6,0.8,7l0,0c-0.4,0.4-0.4,0.9,0,1.3l15.4,15.4c0.4,0.4,0.9,0.4,1.3,0h0
		C17.9,23.3,17.9,22.7,17.5,22.4z"/>
	<path class="st0" d="M23.8,18.4L7.2,1.8C6.1,0.7,4.7,0.3,3.5,0.6L22,19.1c1.1,1.1,1.1,2.8,0,3.9l-2.6,2.6c-1.1,1.1-2.8,1.1-3.9,0
		L0,10v27.9c0,3.8,4.5,5.6,7.2,3l16.6-16.6C25.5,22.7,25.5,20,23.8,18.4z"/>
	<path class="st0" d="M18.3,18L2.7,2.4c-0.4-0.4-0.9-0.4-1.3,0l0,0c-0.4,0.4-0.4,0.9,0,1.3L17,19.3c0.4,0.4,0.9,0.4,1.3,0v0
		C18.6,18.9,18.6,18.3,18.3,18z"/>
	<g>
		<g>
			<path class="st0" d="M44.6,16.7c0.6,1.3,0.9,2.7,0.9,4.1c0,1.5-0.3,2.9-0.9,4.1c-0.6,1.3-1.5,2.5-2.5,3.4c-1.1,1-2.3,1.8-3.7,2.3
				c-1.4,0.6-2.9,0.8-4.6,0.8h-1.4h-5.2V14.9v-2.4v-2.3h6.6c1.6,0,3.1,0.3,4.5,0.8c1.4,0.6,2.7,1.3,3.8,2.3
				C43.1,14.2,44,15.4,44.6,16.7z M36.3,26.3c0.8-0.3,1.5-0.7,2.1-1.3c0.6-0.6,1.1-1.2,1.4-1.9c0.3-0.7,0.5-1.5,0.5-2.3
				c0-0.8-0.2-1.6-0.5-2.3c-0.3-0.7-0.8-1.3-1.4-1.9c-0.6-0.6-1.3-1-2.1-1.3c-0.8-0.3-1.6-0.4-2.5-0.4h-1.4v11.9h1.4
				C34.6,26.8,35.5,26.6,36.3,26.3z"/>
			<path class="st0" d="M48.1,12.1c-0.6-0.6-0.9-1.2-0.9-2c0-0.4,0.1-0.8,0.3-1.1c0.1-0.4,0.4-0.7,0.7-0.9c0.3-0.3,0.6-0.5,1-0.6
				s0.8-0.2,1.2-0.2c0.4,0,0.8,0.1,1.2,0.2c0.4,0.1,0.7,0.4,1,0.6c0.3,0.3,0.5,0.6,0.7,0.9c0.1,0.4,0.2,0.7,0.2,1.1
				c0,0.4-0.1,0.8-0.2,1.1c-0.2,0.4-0.4,0.6-0.7,0.9c-0.3,0.3-0.6,0.5-1,0.6c-0.4,0.1-0.8,0.2-1.2,0.2C49.4,13,48.7,12.7,48.1,12.1z
				 M52.9,13.8v17.7h-5.2V13.8H52.9z"/>
			<path class="st0" d="M60.8,13.8v18.8c0,0.8-0.2,1.5-0.5,2.3c-0.3,0.7-0.8,1.3-1.4,1.8c-0.6,0.5-1.3,0.9-2,1.3
				c-0.8,0.3-1.6,0.5-2.5,0.5h-3.9v-4.8h3.9c0.3,0,0.6-0.1,0.8-0.3c0.2-0.2,0.3-0.5,0.3-0.8V13.8H60.8z M55.9,12.1
				c-0.6-0.6-0.9-1.2-0.9-2c0-0.4,0.1-0.8,0.3-1.1c0.1-0.4,0.4-0.7,0.7-0.9c0.3-0.3,0.6-0.5,1-0.6s0.8-0.2,1.2-0.2
				c0.4,0,0.8,0.1,1.2,0.2s0.7,0.4,1,0.6C60.6,8.3,60.8,8.6,61,9c0.1,0.4,0.2,0.7,0.2,1.1c0,0.4-0.1,0.8-0.2,1.1
				c-0.2,0.4-0.4,0.6-0.7,0.9c-0.3,0.3-0.6,0.5-1,0.6C59,12.9,58.5,13,58.1,13C57.2,13,56.5,12.7,55.9,12.1z"/>
			<path class="st0" d="M63.9,12.1c-0.6-0.6-0.9-1.2-0.9-2c0-0.4,0.1-0.8,0.3-1.1c0.1-0.4,0.4-0.7,0.7-0.9c0.3-0.3,0.6-0.5,1-0.6
				c0.4-0.1,0.8-0.2,1.2-0.2c0.4,0,0.8,0.1,1.2,0.2c0.4,0.1,0.7,0.4,1,0.6c0.3,0.3,0.5,0.6,0.7,0.9c0.1,0.4,0.2,0.7,0.2,1.1
				c0,0.4-0.1,0.8-0.2,1.1c-0.2,0.4-0.4,0.6-0.7,0.9c-0.3,0.3-0.6,0.5-1,0.6C67,12.9,66.6,13,66.1,13C65.3,13,64.5,12.7,63.9,12.1z
				 M68.8,13.8v17.7h-5.2V13.8H68.8z"/>
			<path class="st0" d="M79.5,24.9c0,0.3,0.1,0.5,0.2,0.7c0.1,0.2,0.3,0.4,0.4,0.5c0.3,0.2,0.6,0.4,0.9,0.5c0.4,0.1,0.7,0.2,1.1,0.2
				h1.2v4.8h-1.2c-1,0-2-0.1-2.9-0.5c-0.9-0.3-1.8-0.8-2.5-1.4c-0.8-0.6-1.4-1.3-1.8-2.2c-0.4-0.8-0.6-1.7-0.6-2.6v-6.3H71v-4.8h3.2
				V10h5.2v3.8h3.9v4.8h-3.9V24.9z"/>
			<path class="st0" d="M98.4,31.5L98.4,31.5l0-0.4v-4.9c0,0.9-0.2,1.7-0.4,2.5c-0.1,0.3-0.2,0.6-0.4,0.9s-0.4,0.6-0.6,0.8
				c-0.2,0.3-0.5,0.5-0.8,0.7c-0.3,0.2-0.6,0.3-1,0.4c-0.1,0-0.3,0-0.5,0c-0.2,0-0.4,0-0.5,0c-1.3,0-2.5-0.2-3.6-0.7
				c-1.1-0.5-2.1-1.1-2.9-1.9c-0.8-0.8-1.5-1.7-2-2.8c-0.5-1.1-0.7-2.2-0.7-3.4c0-1.2,0.2-2.4,0.7-3.4c0.5-1.1,1.1-2,2-2.8
				c0.8-0.8,1.8-1.4,2.9-1.9c1.1-0.5,2.3-0.7,3.6-0.7c0.1,0,0.2,0,0.3,0c0.1,0,0.2,0,0.3,0c0.1,0,0.1,0,0.2,0c0.1,0,0.1,0,0.2,0
				c0.4,0.1,0.7,0.2,1.1,0.4c0.3,0.2,0.6,0.4,0.8,0.7c0.2,0.3,0.4,0.5,0.6,0.8s0.3,0.6,0.4,0.9c0.2,0.7,0.4,1.5,0.4,2.5v-4.9l0-0.4
				h-0.1h5.2v8.8v8.8H98.4z M98.1,21.1c-0.2-0.5-0.5-0.9-0.9-1.3c-0.4-0.4-0.8-0.7-1.3-0.9c-0.5-0.2-1-0.3-1.5-0.3s-1.1,0.1-1.6,0.3
				c-0.5,0.2-0.9,0.5-1.3,0.9c-0.4,0.4-0.7,0.8-0.9,1.3c-0.2,0.5-0.3,1.1-0.3,1.6c0,0.6,0.1,1.1,0.3,1.6s0.5,0.9,0.9,1.3
				c0.4,0.4,0.8,0.7,1.3,0.9c0.5,0.2,1,0.3,1.6,0.3s1.1-0.1,1.5-0.3c0.5-0.2,0.9-0.5,1.3-0.9c0.4-0.4,0.7-0.8,0.9-1.3s0.3-1,0.3-1.6
				C98.4,22.1,98.3,21.6,98.1,21.1z"/>
			<path class="st0" d="M105.4,10h5.2v21.5h-5.2V10z"/>
			<path class="st0" d="M129.6,22.2c0.4,0.8,0.6,1.8,0.6,2.8c0,0.9-0.2,1.8-0.5,2.5c-0.4,0.8-0.9,1.5-1.5,2.1
				c-0.6,0.6-1.4,1.1-2.2,1.4c-0.8,0.4-1.7,0.5-2.7,0.5h-7.3h-3.7V10.1h5.2h4.3c1,0,1.8,0.2,2.7,0.5c0.8,0.4,1.6,0.8,2.2,1.4
				c0.6,0.6,1.1,1.3,1.5,2.1c0.4,0.8,0.6,1.6,0.6,2.5c0,0.6-0.1,1.2-0.3,1.8c-0.2,0.6-0.4,1.1-0.7,1.6
				C128.6,20.6,129.2,21.3,129.6,22.2z M117.5,18.4h4.4c0.4,0,0.8-0.2,1.2-0.6c0.3-0.3,0.5-0.7,0.5-1.2c0-0.5-0.2-0.9-0.5-1.3
				c-0.3-0.4-0.7-0.5-1.2-0.5h-4.3V18.4z M124.5,26.2c0.3-0.3,0.5-0.8,0.5-1.3c0-0.5-0.2-0.9-0.5-1.3c-0.3-0.3-0.7-0.5-1.2-0.5H122
				h-0.1H120h-2.5v3.6h5.8C123.8,26.7,124.2,26.6,124.5,26.2z"/>
			<path class="st0" d="M141.3,31.5c-1.3,0-2.5-0.2-3.6-0.7c-1.1-0.5-2.1-1.1-2.9-2c-0.8-0.8-1.5-1.8-1.9-2.8
				c-0.5-1.1-0.7-2.2-0.7-3.4s0.2-2.2,0.7-3.4c0.4-1.1,1.1-2,1.9-2.8c0.8-0.8,1.8-1.5,2.9-1.9c1.1-0.5,2.4-0.7,3.6-0.7
				c0.6,0,1.3,0.1,1.9,0.2c0.6,0.1,1.2,0.3,1.8,0.6c1.1,0.4,2.1,1.1,2.9,1.9c0.8,0.8,1.5,1.8,1.9,2.8c0.5,1.1,0.7,2.2,0.7,3.4
				l-2.6,2.4H138c0.1,0.1,0.1,0.2,0.2,0.3c0.1,0.1,0.2,0.2,0.3,0.3c0.4,0.4,0.8,0.6,1.3,0.8c0.3,0.1,0.5,0.2,0.8,0.2
				c0.2,0.1,0.5,0.1,0.8,0.1h6.6v4.8H141.3z M144.5,20.3c-0.1-0.1-0.1-0.2-0.2-0.3c-0.1-0.1-0.2-0.2-0.3-0.3
				c-0.4-0.4-0.8-0.6-1.3-0.8c-1-0.4-2-0.4-3,0c-0.5,0.2-0.9,0.5-1.3,0.8c-0.1,0.1-0.2,0.2-0.3,0.3s-0.1,0.2-0.2,0.3H144.5z"/>
			<path class="st0" d="M152.3,10h5.2v21.5h-5.2V10z"/>
			<path class="st0" d="M177.7,13.8v4.8h-0.4h-5.4c0.9,0,1.7,0.1,2.5,0.3c0.6,0.1,1.3,0.4,1.9,0.7c0.6,0.3,1.1,0.8,1.3,1.4
				c0,0.3,0.1,0.6,0.1,0.8c0,0.3,0,0.6,0,0.8c0,1.2-0.2,2.3-0.7,3.4c-0.3,0.8-0.8,1.5-1.4,2.2c0.6,0.6,1.2,1.2,1.5,1.9
				c0.4,0.7,0.6,1.5,0.6,2.4c0,0.8-0.2,1.5-0.5,2.3c-0.3,0.7-0.8,1.3-1.4,1.8c-0.6,0.5-1.3,0.9-2,1.3c-0.8,0.3-1.6,0.5-2.5,0.5h-6.9
				v-4.8h6.9c0.3,0,0.6-0.1,0.8-0.3c0.2-0.2,0.3-0.5,0.3-0.8c0-0.3-0.1-0.5-0.3-0.7c-0.2-0.2-0.5-0.3-0.8-0.3h-2.9v0
				c-1.3,0-2.5-0.2-3.6-0.7c-1.1-0.5-2.1-1.1-2.9-2c-0.4-0.4-0.8-0.8-1.1-1.3c-0.3-0.5-0.6-1-0.8-1.5c-0.5-1.1-0.7-2.2-0.7-3.4
				c0-1.2,0.2-2.3,0.7-3.4c0.2-0.5,0.5-1,0.8-1.5c0.3-0.5,0.7-0.9,1.1-1.3c0.8-0.8,1.8-1.5,2.9-1.9c1.1-0.5,2.3-0.7,3.6-0.7H177.7z
				 M171.3,19.7c-0.2-0.2-0.4-0.4-0.6-0.5c-0.2-0.1-0.4-0.3-0.7-0.4c-0.2-0.1-0.5-0.2-0.7-0.2c-0.3,0-0.5-0.1-0.8-0.1
				c-0.3,0-0.5,0-0.8,0.1c-0.3,0.1-0.5,0.1-0.7,0.2c-0.5,0.2-0.9,0.5-1.3,0.8c-0.4,0.4-0.7,0.8-0.9,1.3c-0.2,0.6-0.3,1.1-0.3,1.6
				c0,0.6,0.1,1.1,0.3,1.6c0.2,0.5,0.5,0.9,0.9,1.3c0.4,0.4,0.8,0.6,1.3,0.8c0.5,0.2,1,0.3,1.5,0.3c0.5,0,1-0.1,1.5-0.3
				c0.3-0.1,0.5-0.2,0.7-0.4c0.2-0.1,0.4-0.3,0.6-0.5c0.4-0.4,0.7-0.8,0.9-1.3c0.2-0.5,0.4-1.1,0.4-1.6c0-0.6-0.1-1.1-0.4-1.6
				C172,20.6,171.7,20.1,171.3,19.7z"/>
			<path class="st0" d="M188.7,31.5c-1.3,0-2.5-0.2-3.6-0.7c-1.1-0.5-2.1-1.1-2.9-2c-0.8-0.8-1.5-1.8-1.9-2.8
				c-0.5-1.1-0.7-2.2-0.7-3.4s0.2-2.2,0.7-3.4c0.4-1.1,1.1-2,1.9-2.8c0.8-0.8,1.8-1.5,2.9-1.9c1.1-0.5,2.4-0.7,3.6-0.7
				c0.6,0,1.3,0.1,1.9,0.2c0.6,0.1,1.2,0.3,1.8,0.6c1.1,0.4,2.1,1.1,2.9,1.9c0.8,0.8,1.5,1.8,1.9,2.8c0.5,1.1,0.7,2.2,0.7,3.4
				l-2.6,2.4h-9.9c0.1,0.1,0.1,0.2,0.2,0.3c0.1,0.1,0.2,0.2,0.3,0.3c0.4,0.4,0.8,0.6,1.3,0.8c0.3,0.1,0.5,0.2,0.8,0.2
				c0.2,0.1,0.5,0.1,0.8,0.1h6.6v4.8H188.7z M192,20.3c-0.1-0.1-0.1-0.2-0.2-0.3c-0.1-0.1-0.2-0.2-0.3-0.3c-0.4-0.4-0.8-0.6-1.3-0.8
				c-1-0.4-2-0.4-3,0c-0.5,0.2-0.9,0.5-1.3,0.8c-0.1,0.1-0.2,0.2-0.3,0.3c-0.1,0.1-0.1,0.2-0.2,0.3H192z"/>
		</g>
	</g>
	<path class="st0" d="M19.1,5.1l-4.2,0c-0.7,0-1,0.8-0.5,1.3l4.2,4.2c0.5,0.5,1.3,0.1,1.3-0.5V5.8C19.9,5.4,19.5,5.1,19.1,5.1z"/>
</g>
</svg>
