<?xml version="1.0" encoding="utf-8"?>
<!-- Generator: Adobe Illustrator 25.0.1, SVG Export Plug-In . SVG Version: 6.00 Build 0)  -->
<svg version="1.1" id="katman_1" xmlns="http://www.w3.org/2000/svg" xmlns:xlink="http://www.w3.org/1999/xlink" x="0px" y="0px"
	 viewBox="0 0 44 44" style="enable-background:new 0 0 44 44;" xml:space="preserve">
<style type="text/css">
	.st0{fill:#F5F5F7;}
	.st1{fill:#F9B513;}
	.st2{fill:#253467;}
</style>
<path class="st0" d="M27.5,20l2.1,2.1l-2.1,2.1l-2.1-2.1L27.5,20z"/>
<path class="st0" d="M20.6,31.1l-2.1,2.1l-2.1-2.1l2.1-2.1L20.6,31.1z"/>
<path class="st0" d="M24.5,17l2.1,2.1l-2.1,2.1l-2.1-2.1L24.5,17z"/>
<path class="st0" d="M23.6,28.1l-2.1,2.1l-2.1-2.1l2.1-2.1L23.6,28.1z"/>
<path class="st0" d="M21.5,14l2.1,2.1l-2.1,2.1l-2.1-2.1L21.5,14z"/>
<path class="st0" d="M26.6,25.1l-2.1,2.1l-2.1-2.1l2.1-2.1L26.6,25.1z"/>
<path class="st0" d="M18.5,11l2.1,2.1l-2.1,2.1l-2.1-2.1L18.5,11z"/>
<path class="st0" d="M23.6,22.1l-2.1,2.1l-2.1-2.1l2.1-2.1L23.6,22.1z"/>
<path class="st0" d="M18.2,22.1l-2.1,2.1L14,22.1l2.1-2.1L18.2,22.1z"/>
<g>
	<path class="st1" d="M27.2,23.1l-16-16c-0.4-0.4-1-0.4-1.3,0l0,0c-0.4,0.4-0.4,1,0,1.3l16,16c0.4,0.4,1,0.4,1.3,0h0
		C27.5,24,27.5,23.4,27.2,23.1z"/>
	<path class="st2" d="M33.7,18.9L16.5,1.7c-1.1-1.1-2.6-1.5-3.9-1.2l19.2,19.2c1.1,1.1,1.1,2.9,0,4l-2.7,2.7c-1.1,1.1-2.9,1.1-4,0
		L9,10.3v28.9c0,3.9,4.7,5.8,7.5,3.1l17.2-17.2C35.4,23.4,35.4,20.6,33.7,18.9z"/>
	<path class="st1" d="M27.9,18.5L11.9,2.4c-0.4-0.4-1-0.4-1.3,0l0,0c-0.4,0.4-0.4,1,0,1.3l16.1,16.1c0.4,0.4,1,0.4,1.3,0l0,0
		C28.3,19.5,28.3,18.9,27.9,18.5z"/>
	<path class="st1" d="M28.8,5.2l-4.4,0c-0.7,0-1.1,0.8-0.6,1.3l4.4,4.4c0.5,0.5,1.3,0.1,1.3-0.6V5.9C29.6,5.5,29.2,5.2,28.8,5.2z"/>
</g>
</svg>
