<?xml version="1.0" encoding="utf-8"?>
<!-- Generator: Adobe Illustrator 25.0.1, SVG Export Plug-In . SVG Version: 6.00 Build 0)  -->
<svg version="1.1" id="katman_1" xmlns="http://www.w3.org/2000/svg" xmlns:xlink="http://www.w3.org/1999/xlink" x="0px" y="0px"
	 viewBox="0 0 198 44" style="enable-background:new 0 0 198 44;" xml:space="preserve">
<style type="text/css">
	.st0{fill:#F5F5F7;}
	.st1{fill:#F9B513;}
	.st2{fill:#253467;}
</style>
<path class="st0" d="M27.5,20l2.1,2.1l-2.1,2.1l-2.1-2.1L27.5,20z"/>
<path class="st0" d="M20.6,31.1l-2.1,2.1l-2.1-2.1l2.1-2.1L20.6,31.1z"/>
<path class="st0" d="M24.5,17l2.1,2.1l-2.1,2.1l-2.1-2.1L24.5,17z"/>
<path class="st0" d="M23.6,28.1l-2.1,2.1l-2.1-2.1l2.1-2.1L23.6,28.1z"/>
<path class="st0" d="M21.5,14l2.1,2.1l-2.1,2.1l-2.1-2.1L21.5,14z"/>
<path class="st0" d="M26.6,25.1l-2.1,2.1l-2.1-2.1l2.1-2.1L26.6,25.1z"/>
<path class="st0" d="M18.5,11l2.1,2.1l-2.1,2.1l-2.1-2.1L18.5,11z"/>
<path class="st0" d="M23.6,22.1l-2.1,2.1l-2.1-2.1l2.1-2.1L23.6,22.1z"/>
<path class="st0" d="M18.2,22.1l-2.1,2.1L14,22.1l2.1-2.1L18.2,22.1z"/>
<g>
	<path class="st1" d="M17.6,23.1L2,7.6c-0.3-0.3-0.8-0.3-1.2,0L0.7,7.7C0.4,8,0.4,8.5,0.7,8.8l15.6,15.6c0.3,0.3,0.8,0.3,1.2,0
		l0.1-0.1C17.9,23.9,17.9,23.4,17.6,23.1z"/>
	<path class="st2" d="M23.8,19L7.2,2.4C6.1,1.3,4.7,1,3.5,1.2L22,19.8c1.1,1.1,1.1,2.8,0,3.9l-2.6,2.6c-1.1,1.1-2.8,1.1-3.9,0
		L0,10.7v27.9c0,3.8,4.5,5.6,7.2,3L23.8,25C25.5,23.3,25.5,20.7,23.8,19z"/>
	<path class="st1" d="M18.3,18.7L2.7,3C2.3,2.7,1.8,2.7,1.5,3L1.4,3.2C1.1,3.5,1.1,4,1.4,4.3L17,20c0.3,0.3,0.8,0.3,1.2,0l0.1-0.1
		C18.6,19.5,18.6,19,18.3,18.7z"/>
	<g>
		<g>
			<path class="st2" d="M44.6,17.4c0.6,1.3,0.9,2.7,0.9,4.1c0,1.5-0.3,2.9-0.9,4.1c-0.6,1.3-1.5,2.5-2.5,3.4c-1.1,1-2.3,1.8-3.7,2.3
				c-1.4,0.6-2.9,0.8-4.6,0.8h-1.4h-5.2V15.5v-2.4v-2.3h6.6c1.6,0,3.1,0.3,4.5,0.8c1.4,0.6,2.7,1.3,3.8,2.3
				C43.1,14.9,44,16,44.6,17.4z M36.3,27c0.8-0.3,1.5-0.7,2.1-1.3c0.6-0.6,1.1-1.2,1.4-1.9c0.3-0.7,0.5-1.5,0.5-2.3
				s-0.2-1.6-0.5-2.3c-0.3-0.7-0.8-1.3-1.4-1.9c-0.6-0.6-1.3-1-2.1-1.3c-0.8-0.3-1.6-0.4-2.5-0.4h-1.4v11.9h1.4
				C34.6,27.4,35.5,27.3,36.3,27z"/>
			<path class="st2" d="M48.1,12.8c-0.6-0.6-0.9-1.2-0.9-2c0-0.4,0.1-0.8,0.3-1.1c0.1-0.4,0.4-0.7,0.7-0.9c0.3-0.3,0.6-0.5,1-0.6
				c0.4-0.1,0.8-0.2,1.2-0.2c0.4,0,0.8,0.1,1.2,0.2c0.4,0.1,0.7,0.4,1,0.6c0.3,0.3,0.5,0.6,0.7,0.9c0.1,0.4,0.2,0.7,0.2,1.1
				c0,0.4-0.1,0.8-0.2,1.1c-0.2,0.4-0.4,0.6-0.7,0.9c-0.3,0.3-0.6,0.5-1,0.6c-0.4,0.1-0.8,0.2-1.2,0.2
				C49.4,13.6,48.7,13.4,48.1,12.8z M52.9,14.5v17.7h-5.2V14.5H52.9z"/>
			<path class="st2" d="M60.8,14.5v18.8c0,0.8-0.2,1.5-0.5,2.3c-0.3,0.7-0.8,1.3-1.4,1.8c-0.6,0.5-1.3,0.9-2,1.3
				c-0.8,0.3-1.6,0.5-2.5,0.5h-3.9v-4.8h3.9c0.3,0,0.6-0.1,0.8-0.3c0.2-0.2,0.3-0.5,0.3-0.8V14.5H60.8z M55.9,12.8
				c-0.6-0.6-0.9-1.2-0.9-2c0-0.4,0.1-0.8,0.3-1.1c0.1-0.4,0.4-0.7,0.7-0.9c0.3-0.3,0.6-0.5,1-0.6c0.4-0.1,0.8-0.2,1.2-0.2
				c0.4,0,0.8,0.1,1.2,0.2c0.4,0.1,0.7,0.4,1,0.6C60.6,9,60.8,9.3,61,9.6c0.1,0.4,0.2,0.7,0.2,1.1c0,0.4-0.1,0.8-0.2,1.1
				c-0.2,0.4-0.4,0.6-0.7,0.9c-0.3,0.3-0.6,0.5-1,0.6c-0.4,0.1-0.8,0.2-1.2,0.2C57.2,13.6,56.5,13.4,55.9,12.8z"/>
			<path class="st2" d="M63.9,12.8c-0.6-0.6-0.9-1.2-0.9-2c0-0.4,0.1-0.8,0.3-1.1c0.1-0.4,0.4-0.7,0.7-0.9c0.3-0.3,0.6-0.5,1-0.6
				c0.4-0.1,0.8-0.2,1.2-0.2S67,8,67.4,8.1c0.4,0.1,0.7,0.4,1,0.6c0.3,0.3,0.5,0.6,0.7,0.9c0.1,0.4,0.2,0.7,0.2,1.1
				c0,0.4-0.1,0.8-0.2,1.1c-0.2,0.4-0.4,0.6-0.7,0.9c-0.3,0.3-0.6,0.5-1,0.6c-0.4,0.1-0.8,0.2-1.2,0.2
				C65.3,13.6,64.5,13.4,63.9,12.8z M68.8,14.5v17.7h-5.2V14.5H68.8z"/>
			<path class="st2" d="M79.5,25.6c0,0.3,0.1,0.5,0.2,0.7c0.1,0.2,0.3,0.4,0.4,0.5c0.3,0.2,0.6,0.4,0.9,0.5c0.4,0.1,0.7,0.2,1.1,0.2
				h1.2v4.8h-1.2c-1,0-2-0.1-2.9-0.5c-0.9-0.3-1.8-0.8-2.5-1.4c-0.8-0.6-1.4-1.3-1.8-2.2c-0.4-0.8-0.6-1.7-0.6-2.6v-6.3H71v-4.8h3.2
				v-3.8h5.2v3.8h3.9v4.8h-3.9V25.6z"/>
			<path class="st2" d="M98.4,32.2L98.4,32.2l0-0.4v-4.9c0,0.9-0.2,1.7-0.4,2.5c-0.1,0.3-0.2,0.6-0.4,0.9c-0.1,0.3-0.4,0.6-0.6,0.8
				c-0.2,0.3-0.5,0.5-0.8,0.7c-0.3,0.2-0.6,0.3-1,0.4c-0.1,0-0.3,0-0.5,0c-0.2,0-0.4,0-0.5,0c-1.3,0-2.5-0.2-3.6-0.7
				c-1.1-0.5-2.1-1.1-2.9-1.9s-1.5-1.7-2-2.8c-0.5-1.1-0.7-2.2-0.7-3.4c0-1.2,0.2-2.4,0.7-3.4c0.5-1.1,1.1-2,2-2.8
				c0.8-0.8,1.8-1.4,2.9-1.9c1.1-0.5,2.3-0.7,3.6-0.7c0.1,0,0.2,0,0.3,0s0.2,0,0.3,0c0.1,0,0.1,0,0.2,0c0.1,0,0.1,0,0.2,0
				c0.4,0.1,0.7,0.2,1.1,0.4c0.3,0.2,0.6,0.4,0.8,0.7c0.2,0.3,0.4,0.5,0.6,0.8c0.1,0.3,0.3,0.6,0.4,0.9c0.2,0.7,0.4,1.5,0.4,2.5
				v-4.9l0-0.4h-0.1h5.2v8.8v8.8H98.4z M98.1,21.7c-0.2-0.5-0.5-0.9-0.9-1.3c-0.4-0.4-0.8-0.7-1.3-0.9c-0.5-0.2-1-0.3-1.5-0.3
				c-0.6,0-1.1,0.1-1.6,0.3c-0.5,0.2-0.9,0.5-1.3,0.9c-0.4,0.4-0.7,0.8-0.9,1.3c-0.2,0.5-0.3,1.1-0.3,1.6c0,0.6,0.1,1.1,0.3,1.6
				c0.2,0.5,0.5,0.9,0.9,1.3c0.4,0.4,0.8,0.7,1.3,0.9c0.5,0.2,1,0.3,1.6,0.3c0.6,0,1.1-0.1,1.5-0.3c0.5-0.2,0.9-0.5,1.3-0.9
				c0.4-0.4,0.7-0.8,0.9-1.3c0.2-0.5,0.3-1,0.3-1.6C98.4,22.8,98.3,22.2,98.1,21.7z"/>
			<path class="st2" d="M105.4,10.7h5.2v21.5h-5.2V10.7z"/>
			<path class="st1" d="M129.6,22.8c0.4,0.8,0.6,1.8,0.6,2.8c0,0.9-0.2,1.8-0.5,2.5c-0.4,0.8-0.9,1.5-1.5,2.1
				c-0.6,0.6-1.4,1.1-2.2,1.4c-0.8,0.4-1.7,0.5-2.7,0.5h-7.3h-3.7V10.7h5.2h4.3c1,0,1.8,0.2,2.7,0.5c0.8,0.4,1.6,0.8,2.2,1.4
				c0.6,0.6,1.1,1.3,1.5,2.1c0.4,0.8,0.6,1.6,0.6,2.5c0,0.6-0.1,1.2-0.3,1.8c-0.2,0.6-0.4,1.1-0.7,1.6
				C128.6,21.2,129.2,22,129.6,22.8z M117.5,19h4.4c0.4,0,0.8-0.2,1.2-0.6c0.3-0.3,0.5-0.7,0.5-1.2c0-0.5-0.2-0.9-0.5-1.3
				c-0.3-0.4-0.7-0.5-1.2-0.5h-4.3V19z M124.5,26.9c0.3-0.3,0.5-0.8,0.5-1.3c0-0.5-0.2-0.9-0.5-1.3c-0.3-0.3-0.7-0.5-1.2-0.5H122
				h-0.1H120h-2.5v3.6h5.8C123.8,27.4,124.2,27.2,124.5,26.9z"/>
			<path class="st1" d="M141.3,32.2c-1.3,0-2.5-0.2-3.6-0.7c-1.1-0.5-2.1-1.1-2.9-2c-0.8-0.8-1.5-1.8-1.9-2.8
				c-0.5-1.1-0.7-2.2-0.7-3.4c0-1.1,0.2-2.2,0.7-3.4c0.4-1.1,1.1-2,1.9-2.8c0.8-0.8,1.8-1.5,2.9-1.9c1.1-0.5,2.4-0.7,3.6-0.7
				c0.6,0,1.3,0.1,1.9,0.2c0.6,0.1,1.2,0.3,1.8,0.6c1.1,0.4,2.1,1.1,2.9,1.9c0.8,0.8,1.5,1.8,1.9,2.8c0.5,1.1,0.7,2.2,0.7,3.4
				l-2.6,2.4H138c0.1,0.1,0.1,0.2,0.2,0.3c0.1,0.1,0.2,0.2,0.3,0.3c0.4,0.4,0.8,0.6,1.3,0.8c0.3,0.1,0.5,0.2,0.8,0.2
				c0.2,0.1,0.5,0.1,0.8,0.1h6.6v4.8H141.3z M144.5,20.9c-0.1-0.1-0.1-0.2-0.2-0.3c-0.1-0.1-0.2-0.2-0.3-0.3
				c-0.4-0.4-0.8-0.6-1.3-0.8c-1-0.4-2-0.4-3,0c-0.5,0.2-0.9,0.5-1.3,0.8c-0.1,0.1-0.2,0.2-0.3,0.3c-0.1,0.1-0.1,0.2-0.2,0.3H144.5z
				"/>
			<path class="st1" d="M152.3,10.7h5.2v21.5h-5.2V10.7z"/>
			<path class="st1" d="M177.7,14.5v4.8h-0.4h-5.4c0.9,0,1.7,0.1,2.5,0.3c0.6,0.1,1.3,0.4,1.9,0.7c0.6,0.3,1.1,0.8,1.3,1.4
				c0,0.3,0.1,0.6,0.1,0.8c0,0.3,0,0.6,0,0.8c0,1.2-0.2,2.3-0.7,3.4c-0.4,0.8-0.8,1.5-1.4,2.2c0.6,0.6,1.2,1.2,1.5,1.9
				c0.4,0.7,0.6,1.5,0.6,2.4c0,0.8-0.2,1.5-0.5,2.3c-0.3,0.7-0.8,1.3-1.4,1.8c-0.6,0.5-1.3,0.9-2,1.3c-0.8,0.3-1.6,0.5-2.5,0.5h-6.9
				v-4.8h6.9c0.3,0,0.6-0.1,0.8-0.3c0.2-0.2,0.3-0.5,0.3-0.8c0-0.3-0.1-0.5-0.3-0.7c-0.2-0.2-0.5-0.3-0.8-0.3h-2.9v0
				c-1.3,0-2.5-0.2-3.6-0.7c-1.1-0.5-2.1-1.1-2.9-2c-0.4-0.4-0.8-0.8-1.1-1.3c-0.3-0.5-0.6-1-0.8-1.5c-0.5-1.1-0.7-2.2-0.7-3.4
				c0-1.2,0.2-2.3,0.7-3.4c0.2-0.5,0.5-1,0.8-1.5c0.3-0.5,0.7-0.9,1.1-1.3c0.8-0.8,1.8-1.5,2.9-1.9c1.1-0.5,2.3-0.7,3.6-0.7H177.7z
				 M171.3,20.4c-0.2-0.2-0.4-0.4-0.6-0.5c-0.2-0.1-0.4-0.3-0.7-0.4c-0.2-0.1-0.5-0.2-0.7-0.2c-0.3,0-0.5-0.1-0.8-0.1
				s-0.5,0-0.8,0.1c-0.3,0.1-0.5,0.1-0.7,0.2c-0.5,0.2-0.9,0.5-1.3,0.8c-0.4,0.4-0.7,0.8-0.9,1.3c-0.2,0.6-0.3,1.1-0.3,1.6
				c0,0.6,0.1,1.1,0.3,1.6c0.2,0.5,0.5,0.9,0.9,1.3c0.4,0.4,0.8,0.6,1.3,0.8c0.5,0.2,1,0.3,1.5,0.3c0.5,0,1-0.1,1.5-0.3
				c0.3-0.1,0.5-0.2,0.7-0.4c0.2-0.1,0.4-0.3,0.6-0.5c0.4-0.4,0.7-0.8,0.9-1.3c0.2-0.5,0.4-1.1,0.4-1.6c0-0.6-0.1-1.1-0.4-1.6
				C172,21.2,171.7,20.8,171.3,20.4z"/>
			<path class="st1" d="M188.7,32.2c-1.3,0-2.5-0.2-3.6-0.7c-1.1-0.5-2.1-1.1-2.9-2c-0.8-0.8-1.5-1.8-1.9-2.8
				c-0.5-1.1-0.7-2.2-0.7-3.4c0-1.1,0.2-2.2,0.7-3.4c0.4-1.1,1.1-2,1.9-2.8c0.8-0.8,1.8-1.5,2.9-1.9c1.1-0.5,2.4-0.7,3.6-0.7
				c0.6,0,1.3,0.1,1.9,0.2c0.6,0.1,1.2,0.3,1.8,0.6c1.1,0.4,2.1,1.1,2.9,1.9c0.8,0.8,1.5,1.8,1.9,2.8c0.5,1.1,0.7,2.2,0.7,3.4
				l-2.6,2.4h-9.9c0.1,0.1,0.1,0.2,0.2,0.3c0.1,0.1,0.2,0.2,0.3,0.3c0.4,0.4,0.8,0.6,1.3,0.8c0.3,0.1,0.5,0.2,0.8,0.2
				c0.2,0.1,0.5,0.1,0.8,0.1h6.6v4.8H188.7z M192,20.9c-0.1-0.1-0.1-0.2-0.2-0.3c-0.1-0.1-0.2-0.2-0.3-0.3c-0.4-0.4-0.8-0.6-1.3-0.8
				c-1-0.4-2-0.4-3,0c-0.5,0.2-0.9,0.5-1.3,0.8c-0.1,0.1-0.2,0.2-0.3,0.3c-0.1,0.1-0.1,0.2-0.2,0.3H192z"/>
		</g>
	</g>
	<path class="st1" d="M19.1,5.7l-4.2,0c-0.7,0-1,0.8-0.5,1.3l4.2,4.2c0.5,0.5,1.3,0.1,1.3-0.5V6.5C19.9,6.1,19.5,5.7,19.1,5.7z"/>
</g>
</svg>
